<mxfile host="app.diagrams.net" modified="2021-07-07T08:56:16.259Z" agent="5.0 (X11; Linux x86_64) AppleWebKit/537.36 (KHTML, like Gecko) Chrome/89.0.4389.82 Safari/537.36" etag="E2jiljYAv3hPqdjdUhcf" version="14.8.4" type="github">
  <diagram id="cAtFJ-n8TtIKVpMIeBj_" name="Page-1">
    <mxGraphModel dx="1362" dy="761" grid="1" gridSize="10" guides="1" tooltips="1" connect="1" arrows="1" fold="1" page="1" pageScale="1" pageWidth="1654" pageHeight="2336" math="0" shadow="0">
      <root>
        <mxCell id="0" />
        <mxCell id="1" parent="0" />
        <mxCell id="1i-iLVC1vLcuLtuN7oaf-24" value="" style="rounded=0;whiteSpace=wrap;html=1;" vertex="1" parent="1">
          <mxGeometry x="35" y="550" width="740" height="180" as="geometry" />
        </mxCell>
        <mxCell id="1i-iLVC1vLcuLtuN7oaf-4" value="系统日志" style="whiteSpace=wrap;html=1;aspect=fixed;" vertex="1" parent="1">
          <mxGeometry x="70" y="600" width="70" height="70" as="geometry" />
        </mxCell>
        <mxCell id="1i-iLVC1vLcuLtuN7oaf-5" value="内核日志" style="whiteSpace=wrap;html=1;aspect=fixed;" vertex="1" parent="1">
          <mxGeometry x="170" y="600" width="70" height="70" as="geometry" />
        </mxCell>
        <mxCell id="1i-iLVC1vLcuLtuN7oaf-6" value="启动日志" style="whiteSpace=wrap;html=1;aspect=fixed;" vertex="1" parent="1">
          <mxGeometry x="270" y="600" width="70" height="70" as="geometry" />
        </mxCell>
        <mxCell id="1i-iLVC1vLcuLtuN7oaf-8" value="xorg/kwin日志" style="whiteSpace=wrap;html=1;aspect=fixed;" vertex="1" parent="1">
          <mxGeometry x="470" y="600" width="70" height="70" as="geometry" />
        </mxCell>
        <mxCell id="1i-iLVC1vLcuLtuN7oaf-9" value="开关机事件" style="whiteSpace=wrap;html=1;aspect=fixed;" vertex="1" parent="1">
          <mxGeometry x="580" y="600" width="70" height="70" as="geometry" />
        </mxCell>
        <mxCell id="1i-iLVC1vLcuLtuN7oaf-10" value="应用日志" style="whiteSpace=wrap;html=1;aspect=fixed;" vertex="1" parent="1">
          <mxGeometry x="680" y="600" width="70" height="70" as="geometry" />
        </mxCell>
        <mxCell id="1i-iLVC1vLcuLtuN7oaf-14" style="edgeStyle=orthogonalEdgeStyle;shape=link;rounded=0;orthogonalLoop=1;jettySize=auto;html=1;exitX=0.5;exitY=1;exitDx=0;exitDy=0;" edge="1" parent="1" source="1i-iLVC1vLcuLtuN7oaf-5" target="1i-iLVC1vLcuLtuN7oaf-5">
          <mxGeometry relative="1" as="geometry" />
        </mxCell>
        <mxCell id="1i-iLVC1vLcuLtuN7oaf-7" value="dpkg/dng日志" style="whiteSpace=wrap;html=1;aspect=fixed;" vertex="1" parent="1">
          <mxGeometry x="370" y="600" width="70" height="70" as="geometry" />
        </mxCell>
        <mxCell id="1i-iLVC1vLcuLtuN7oaf-25" value="" style="endArrow=classic;html=1;" edge="1" parent="1">
          <mxGeometry width="50" height="50" relative="1" as="geometry">
            <mxPoint x="404.5" y="730" as="sourcePoint" />
            <mxPoint x="404.5" y="790" as="targetPoint" />
          </mxGeometry>
        </mxCell>
        <mxCell id="1i-iLVC1vLcuLtuN7oaf-26" value="" style="rounded=0;whiteSpace=wrap;html=1;" vertex="1" parent="1">
          <mxGeometry x="30" y="790" width="745" height="160" as="geometry" />
        </mxCell>
        <mxCell id="1i-iLVC1vLcuLtuN7oaf-27" value="" style="rounded=0;whiteSpace=wrap;html=1;" vertex="1" parent="1">
          <mxGeometry x="40" y="830" width="470" height="90" as="geometry" />
        </mxCell>
        <mxCell id="1i-iLVC1vLcuLtuN7oaf-28" value="Threadpool&lt;br&gt;" style="text;strokeColor=none;fillColor=none;html=1;fontSize=24;fontStyle=1;verticalAlign=middle;align=center;rounded=0;" vertex="1" parent="1">
          <mxGeometry x="80" y="830" width="100" height="40" as="geometry" />
        </mxCell>
        <mxCell id="1i-iLVC1vLcuLtuN7oaf-29" value="" style="rounded=0;whiteSpace=wrap;html=1;" vertex="1" parent="1">
          <mxGeometry x="520" y="830" width="230" height="90" as="geometry" />
        </mxCell>
        <mxCell id="1i-iLVC1vLcuLtuN7oaf-30" value="AppLogThread" style="text;strokeColor=none;fillColor=none;html=1;fontSize=24;fontStyle=1;verticalAlign=middle;align=center;rounded=0;" vertex="1" parent="1">
          <mxGeometry x="560" y="830" width="100" height="40" as="geometry" />
        </mxCell>
        <mxCell id="1i-iLVC1vLcuLtuN7oaf-31" value="handlekern" style="text;html=1;strokeColor=none;fillColor=none;align=center;verticalAlign=middle;whiteSpace=wrap;rounded=0;" vertex="1" parent="1">
          <mxGeometry x="110" y="880" width="60" height="20" as="geometry" />
        </mxCell>
        <mxCell id="1i-iLVC1vLcuLtuN7oaf-32" value="handleboot" style="text;html=1;strokeColor=none;fillColor=none;align=center;verticalAlign=middle;whiteSpace=wrap;rounded=0;" vertex="1" parent="1">
          <mxGeometry x="185" y="880" width="40" height="20" as="geometry" />
        </mxCell>
        <mxCell id="1i-iLVC1vLcuLtuN7oaf-33" value="handledpkg/dnf" style="text;html=1;strokeColor=none;fillColor=none;align=center;verticalAlign=middle;whiteSpace=wrap;rounded=0;" vertex="1" parent="1">
          <mxGeometry x="260" y="880" width="40" height="20" as="geometry" />
        </mxCell>
        <mxCell id="1i-iLVC1vLcuLtuN7oaf-34" value="handlexorg/kwin" style="text;html=1;strokeColor=none;fillColor=none;align=center;verticalAlign=middle;whiteSpace=wrap;rounded=0;" vertex="1" parent="1">
          <mxGeometry x="350" y="880" width="40" height="20" as="geometry" />
        </mxCell>
        <mxCell id="1i-iLVC1vLcuLtuN7oaf-35" value="handlenormal" style="text;html=1;strokeColor=none;fillColor=none;align=center;verticalAlign=middle;whiteSpace=wrap;rounded=0;" vertex="1" parent="1">
          <mxGeometry x="440" y="880" width="40" height="20" as="geometry" />
        </mxCell>
        <mxCell id="1i-iLVC1vLcuLtuN7oaf-36" value="handleAppLog" style="text;html=1;strokeColor=none;fillColor=none;align=center;verticalAlign=middle;whiteSpace=wrap;rounded=0;" vertex="1" parent="1">
          <mxGeometry x="615" y="880" width="40" height="20" as="geometry" />
        </mxCell>
        <mxCell id="1i-iLVC1vLcuLtuN7oaf-38" value="jounalwork" style="text;html=1;strokeColor=none;fillColor=none;align=center;verticalAlign=middle;whiteSpace=wrap;rounded=0;" vertex="1" parent="1">
          <mxGeometry x="60" y="880" width="40" height="20" as="geometry" />
        </mxCell>
        <mxCell id="1i-iLVC1vLcuLtuN7oaf-45" value="" style="endArrow=classic;html=1;" edge="1" parent="1">
          <mxGeometry width="50" height="50" relative="1" as="geometry">
            <mxPoint x="404.5" y="950" as="sourcePoint" />
            <mxPoint x="405" y="1020" as="targetPoint" />
          </mxGeometry>
        </mxCell>
        <mxCell id="1i-iLVC1vLcuLtuN7oaf-46" value="Structure of LogInfo" style="text;html=1;strokeColor=none;fillColor=none;align=center;verticalAlign=middle;whiteSpace=wrap;rounded=0;" vertex="1" parent="1">
          <mxGeometry x="270" y="940" width="130" height="100" as="geometry" />
        </mxCell>
        <mxCell id="1i-iLVC1vLcuLtuN7oaf-49" value="" style="endArrow=classic;html=1;" edge="1" parent="1">
          <mxGeometry width="50" height="50" relative="1" as="geometry">
            <mxPoint x="890" y="760" as="sourcePoint" />
            <mxPoint x="410" y="760" as="targetPoint" />
            <Array as="points">
              <mxPoint x="500" y="760" />
            </Array>
          </mxGeometry>
        </mxCell>
        <mxCell id="1i-iLVC1vLcuLtuN7oaf-50" value="" style="rounded=0;whiteSpace=wrap;html=1;" vertex="1" parent="1">
          <mxGeometry x="890" y="550" width="200" height="410" as="geometry" />
        </mxCell>
        <mxCell id="1i-iLVC1vLcuLtuN7oaf-51" value="service" style="text;strokeColor=none;fillColor=none;html=1;fontSize=24;fontStyle=1;verticalAlign=middle;align=center;rounded=0;" vertex="1" parent="1">
          <mxGeometry x="900" y="560" width="100" height="40" as="geometry" />
        </mxCell>
        <mxCell id="1i-iLVC1vLcuLtuN7oaf-54" value="LogFilePath" style="text;html=1;strokeColor=none;fillColor=none;align=center;verticalAlign=middle;whiteSpace=wrap;rounded=0;" vertex="1" parent="1">
          <mxGeometry x="570" y="740" width="40" height="20" as="geometry" />
        </mxCell>
        <mxCell id="1i-iLVC1vLcuLtuN7oaf-55" value="1.存在权限问题无法获取多文件的情况下，后端支持对文件进行解压，提供多文件路径" style="text;html=1;strokeColor=none;fillColor=none;align=center;verticalAlign=middle;whiteSpace=wrap;rounded=0;" vertex="1" parent="1">
          <mxGeometry x="910" y="555" width="140" height="170" as="geometry" />
        </mxCell>
      </root>
    </mxGraphModel>
  </diagram>
</mxfile>
